<?xml version="1.0" encoding="utf-8"?>
<!-- Generator: Adobe Illustrator 25.2.1, SVG Export Plug-In . SVG Version: 6.00 Build 0)  -->
<svg version="1.1" id="Layer_1" xmlns="http://www.w3.org/2000/svg" xmlns:xlink="http://www.w3.org/1999/xlink" x="0px" y="0px"
	 viewBox="0 0 300 300" style="enable-background:new 0 0 300 300;" xml:space="preserve">
<style type="text/css">
	.st0{fill:#F5F7F6;}
	.st1{fill:#6C6884;}
	.st2{fill:#6D6696;}
	.st3{fill:#ACB7C9;}
	.st4{fill:#A09BB6;}
	.st5{fill:url(#SVGID_1_);}
	.st6{fill:#594BDB;}
	.st7{fill:#55535F;}
	.st8{fill:#E3E9EE;}
	.st9{fill:#33CC79;}
	#circle {
        transform-box: fill-box;
        transform-origin: 50% 50%;
        animation: spinn 12s linear infinite;
        }

        @keyframes spinn {
        0% { transform: rotate(-360deg); }
        100% { transform: rotate(0deg); }
        }
</style>
<rect class="st0" width="300" height="300"/>
<g>
	<g>
		<path class="st1" d="M52.7,267.3c3.2,0,4.1,2.5,4.1,5.7c0,3.3-0.9,5.8-4.1,5.8s-4.1-2.5-4.1-5.8C48.6,269.8,49.5,267.3,52.7,267.3
			z M52.7,268.9c-2.1,0-2.3,2-2.3,4.1c0,2.2,0.2,4.2,2.3,4.2s2.3-2,2.3-4.2C55,270.9,54.8,268.9,52.7,268.9z"/>
		<path class="st1" d="M62.9,264.1h1.8l-4.2,17.5h-1.7L62.9,264.1z"/>
		<path class="st1" d="M72.1,276.5h-5.7v-1.3l5.2-7.5h2.2v7.3h1.5v1.5h-1.5v2.4h-1.7V276.5z M72.2,275v-5.5l-3.7,5.5H72.2z"/>
		<path class="st1" d="M84,267.5v1.3l-4.3,10h-1.8l4.4-9.8h-5.8v-1.5H84z"/>
		<path class="st1" d="M89.6,267.3c3.2,0,4.1,2.5,4.1,5.7c0,3.3-0.9,5.8-4.1,5.8s-4.1-2.5-4.1-5.8C85.5,269.8,86.4,267.3,89.6,267.3
			z M89.6,268.9c-2.1,0-2.3,2-2.3,4.1c0,2.2,0.2,4.2,2.3,4.2s2.3-2,2.3-4.2C91.9,270.9,91.7,268.9,89.6,268.9z"/>
		<path class="st1" d="M112,274.1c0-1.6-0.9-2.4-2.2-2.4c-1.3,0-2.2,0.8-2.2,2.4v4.8h-1.8v-4.8c0-1.6-0.9-2.4-2.2-2.4
			c-1.3,0-2.2,0.8-2.2,2.4v4.8h-1.8v-8.6h1.8v1c0.6-0.7,1.5-1.1,2.5-1.1c1.4,0,2.5,0.6,3.1,1.7c0.5-1,1.7-1.7,3-1.7
			c2,0,3.5,1.3,3.5,3.7v5.1H112V274.1z"/>
		<path class="st1" d="M119.7,279c-2.5,0-4.3-1.7-4.3-4.4c0-2.7,1.7-4.4,4.3-4.4c2.5,0,4.2,1.7,4.2,4.2c0,0.3,0,0.6-0.1,0.9h-6.6
			c0.1,1.4,1.1,2.3,2.5,2.3c1.1,0,1.7-0.5,2-1.2h1.9C123.2,277.8,121.8,279,119.7,279z M117.3,273.8h4.8c0-1.3-1.1-2.2-2.4-2.2
			C118.5,271.6,117.5,272.4,117.3,273.8z"/>
		<path class="st1" d="M129.4,279c-2.5,0-4.3-1.7-4.3-4.4c0-2.7,1.7-4.4,4.3-4.4c2.5,0,4.2,1.7,4.2,4.2c0,0.3,0,0.6-0.1,0.9h-6.6
			c0.1,1.4,1.1,2.3,2.5,2.3c1.1,0,1.7-0.5,2-1.2h1.9C132.8,277.8,131.5,279,129.4,279z M126.9,273.8h4.8c0-1.3-1.1-2.2-2.4-2.2
			C128.1,271.6,127.1,272.4,126.9,273.8z"/>
		<path class="st1" d="M135.6,271.7h-1v-1.5h1v-2.1h1.8v2.1h2.1v1.5h-2.1v4.8c0,0.6,0.2,0.9,1,0.9h1.1v1.5h-1.4
			c-1.5,0-2.5-0.6-2.5-2.4L135.6,271.7L135.6,271.7z"/>
		<path class="st1" d="M145.9,270.1c2.3,0,4,1.7,4,4.4c0,2.7-1.8,4.5-4,4.5c-1.4,0-2.4-0.6-3-1.4v1.2h-1.8v-11.6h1.8v4.2
			C143.5,270.8,144.5,270.1,145.9,270.1z M145.5,271.7c-1.3,0-2.6,1-2.6,2.9s1.3,2.9,2.6,2.9s2.6-1.1,2.6-2.9
			S146.8,271.7,145.5,271.7z"/>
		<path class="st1" d="M155.2,270.1c1.5,0,2.5,0.7,3,1.4v-1.2h1.8v8.6h-1.8v-1.3c-0.5,0.7-1.6,1.4-3,1.4c-2.2,0-4-1.8-4-4.5
			C151.1,271.9,152.9,270.1,155.2,270.1z M155.5,271.7c-1.3,0-2.6,1-2.6,2.9s1.3,2.9,2.6,2.9s2.6-1,2.6-2.9S156.9,271.7,155.5,271.7
			z"/>
		<path class="st1" d="M164.1,278.9h-1.8v-8.6h1.8v1.2c0.5-0.9,1.4-1.4,2.6-1.4v1.8h-0.5c-1.3,0-2.1,0.5-2.1,2.4V278.9z"/>
		<path class="st1" d="M172,279c-2.5,0-4.3-1.7-4.3-4.4c0-2.7,1.7-4.4,4.3-4.4c2.5,0,4.2,1.7,4.2,4.2c0,0.3,0,0.6-0.1,0.9h-6.6
			c0.1,1.4,1.1,2.3,2.5,2.3c1.1,0,1.7-0.5,2-1.2h1.9C175.4,277.8,174.1,279,172,279z M169.5,273.8h4.8c0-1.3-1.1-2.2-2.4-2.2
			C170.7,271.6,169.7,272.4,169.5,273.8z"/>
		<path class="st1" d="M185.4,270.1c1.5,0,2.5,0.7,3,1.4v-1.2h1.8v8.6h-1.8v-1.3c-0.5,0.7-1.6,1.4-3,1.4c-2.2,0-4-1.8-4-4.5
			C181.4,271.9,183.2,270.1,185.4,270.1z M185.8,271.7c-1.3,0-2.6,1-2.6,2.9s1.3,2.9,2.6,2.9s2.6-1,2.6-2.9
			C188.4,272.7,187.1,271.7,185.8,271.7z"/>
		<path class="st1" d="M194.3,278.9h-1.8v-8.6h1.8v1.2c0.5-0.9,1.4-1.4,2.6-1.4v1.8h-0.5c-1.3,0-2.1,0.5-2.1,2.4V278.9z"/>
		<path class="st1" d="M198.8,271.7h-1v-1.5h1v-2.1h1.8v2.1h2.1v1.5h-2.1v4.8c0,0.6,0.2,0.9,1,0.9h1.1v1.5h-1.4
			c-1.5,0-2.5-0.6-2.5-2.4L198.8,271.7L198.8,271.7z"/>
		<path class="st1" d="M204.1,268c0-0.6,0.5-1.1,1.1-1.1s1.1,0.5,1.1,1.1s-0.5,1.1-1.1,1.1S204.1,268.6,204.1,268z M204.4,270.3h1.8
			v8.6h-1.8V270.3z"/>
		<path class="st1" d="M208.5,267.3h1.8v6.7l3.1-3.8h2.5l-4,4.3l4,4.3h-2.4l-3.2-3.7v3.7h-1.8L208.5,267.3L208.5,267.3z"/>
		<path class="st1" d="M220.8,279c-2.5,0-4.3-1.7-4.3-4.4c0-2.7,1.7-4.4,4.3-4.4c2.5,0,4.2,1.7,4.2,4.2c0,0.3,0,0.6-0.1,0.9h-6.6
			c0.1,1.4,1.1,2.3,2.5,2.3c1.1,0,1.7-0.5,2-1.2h1.9C224.3,277.8,222.9,279,220.8,279z M218.4,273.8h4.8c0-1.3-1.1-2.2-2.4-2.2
			C219.5,271.6,218.6,272.4,218.4,273.8z"/>
		<path class="st1" d="M226.8,267.3h1.8v11.6h-1.8V267.3z"/>
		<path class="st1" d="M234.6,279c-2.5,0-4.3-1.7-4.3-4.4c0-2.7,1.7-4.4,4.3-4.4c2.5,0,4.2,1.7,4.2,4.2c0,0.3,0,0.6-0.1,0.9h-6.6
			c0.1,1.4,1.1,2.3,2.5,2.3c1.1,0,1.7-0.5,2-1.2h1.9C238,277.8,236.7,279,234.6,279z M232.1,273.8h4.8c0-1.3-1.1-2.2-2.4-2.2
			C233.3,271.6,232.3,272.4,232.1,273.8z"/>
		<path class="st1" d="M246.6,274.1c0-1.6-0.9-2.4-2.2-2.4s-2.2,0.8-2.2,2.4v4.8h-1.8v-8.6h1.8v1c0.6-0.7,1.5-1.1,2.6-1.1
			c2,0,3.5,1.3,3.5,3.7v5.1h-1.8L246.6,274.1L246.6,274.1z"/>
	</g>
</g>
<path class="st2" d="M49.7,30.3c-0.2,0.6-0.5,1.2-1.2,1.3c-1,0.3-2-0.5-2-1.6c0-1.3,0-2.7,0-4.2c-0.2,0.2-0.4,0.3-0.5,0.5
	c-3.1,3.2-6.3,6.3-9.4,9.5c-1,1-1.8,1-2.8,0c-1.7-1.7-3.3-3.3-5-5c0,0-0.1,0-0.1-0.1c-1.3,1.3-2.7,2.7-4,4c-1.4,1.4-2.8,2.8-4.2,4.1
	c-0.4,0.4-0.8,0.6-1.3,0.9c-0.2,0-0.4,0-0.6,0c-0.7-0.2-1.1-0.7-1.3-1.3c0-0.2,0-0.4,0-0.7c0.3-0.4,0.6-0.9,1-1.3c3-3,6-6,9-9
	c1-1,1.8-1,2.8,0c1.7,1.7,3.3,3.3,5,5c0,0,0.1,0,0.1,0.1c3-3,5.9-6,9-9c-0.3,0-0.6,0-0.9,0c-0.9,0-1.9,0-2.8,0
	c-1.1,0-1.8-0.4-1.9-1.2c-0.2-0.9,0.2-1.5,1.2-2c2.9,0,5.8,0,8.7,0c0.7,0.2,1.1,0.7,1.3,1.3C49.7,24.6,49.7,27.4,49.7,30.3z"/>
<g>
	<path class="st3" d="M276.2,24c0,0.6-0.5,1-1,1h-1c-0.6,0-1-0.4-1-1v-1c0-0.5,0.4-1,1-1h1c0.5,0,1,0.5,1,1V24z"/>
	<path class="st3" d="M282.7,24c0,0.6-0.4,1-1,1h-1c-0.5,0-1-0.4-1-1v-1c0-0.5,0.5-1,1-1h1c0.6,0,1,0.5,1,1V24z"/>
	<path class="st3" d="M282.7,31.5c0,0.5-0.4,1-1,1h-1c-0.5,0-1-0.5-1-1v-1c0-0.6,0.5-1,1-1h1c0.6,0,1,0.4,1,1V31.5z"/>
	<path class="st3" d="M276.2,31.5c0,0.5-0.5,1-1,1h-1c-0.6,0-1-0.5-1-1v-1c0-0.6,0.4-1,1-1h1c0.5,0,1,0.4,1,1V31.5z"/>
	<path class="st3" d="M276.2,39.1c0,0.6-0.5,1-1,1h-1c-0.6,0-1-0.4-1-1v-1c0-0.5,0.4-1,1-1h1c0.5,0,1,0.5,1,1V39.1z"/>
	<path class="st3" d="M282.7,38.9c0,0.6-0.4,1-1,1h-1c-0.5,0-1-0.4-1-1v-1c0-0.5,0.5-1,1-1h1c0.6,0,1,0.5,1,1V38.9z"/>
</g>
<g>
	<path class="st4" d="M70.8,33.2h-6.6l-1.1,3.2h-2.7L66,20.6h3l5.6,15.8H72L70.8,33.2z M67.6,23.8L65,31.1h5.1L67.6,23.8z"/>
	<path class="st4" d="M79.7,36.5h-2.6V24h2.6v1.8c0.7-1.2,2-2,3.7-2v2.7h-0.7c-1.9,0-3.1,0.8-3.1,3.4L79.7,36.5L79.7,36.5z"/>
	<path class="st4" d="M86.3,26.1h-1.5V24h1.5v-3.1h2.6V24h3v2.1h-3V33c0,0.9,0.4,1.3,1.5,1.3H92v2.2h-2c-2.2,0-3.6-0.9-3.6-3.5
		L86.3,26.1L86.3,26.1z"/>
	<path class="st4" d="M93.9,20.7c0-0.9,0.7-1.7,1.7-1.7c0.9,0,1.6,0.7,1.6,1.7s-0.7,1.7-1.6,1.7C94.7,22.3,93.9,21.6,93.9,20.7z
		 M94.3,24h2.6v12.5h-2.6V24z"/>
	<path class="st4" d="M100.3,19.7h2.6v9.8l4.5-5.5h3.6l-5.8,6.3l5.8,6.2h-3.5l-4.6-5.4v5.4h-2.6V19.7z"/>
	<path class="st4" d="M118.2,36.7c-3.6,0-6.2-2.5-6.2-6.5c0-3.9,2.5-6.4,6.2-6.4c3.6,0,6.1,2.5,6.1,6.1c0,0.4,0,0.8-0.1,1.3h-9.5
		c0.2,2.1,1.7,3.3,3.6,3.3c1.6,0,2.5-0.8,2.9-1.7h2.8C123.2,34.9,121.3,36.7,118.2,36.7z M114.7,29.1h6.9c0-1.9-1.6-3.2-3.5-3.2
		C116.3,25.9,114.9,27.1,114.7,29.1z"/>
	<path class="st4" d="M126.8,19.7h2.6v16.8h-2.6C126.8,36.5,126.8,19.7,126.8,19.7z"/>
	<path class="st4" d="M138.2,36.7c-3.6,0-6.2-2.5-6.2-6.5c0-3.9,2.5-6.4,6.2-6.4c3.6,0,6.1,2.5,6.1,6.1c0,0.4,0,0.8-0.1,1.3h-9.5
		c0.2,2.1,1.7,3.3,3.6,3.3c1.6,0,2.5-0.8,2.9-1.7h2.8C143.2,34.9,141.2,36.7,138.2,36.7z M134.6,29.1h6.9c0-1.9-1.6-3.2-3.5-3.2
		C136.3,25.9,134.9,27.1,134.6,29.1z"/>
	<path class="st4" d="M155.7,29.5c0-2.3-1.2-3.5-3.1-3.5c-1.9,0-3.2,1.2-3.2,3.5v7h-2.6V24h2.6v1.4c0.8-1,2.2-1.6,3.7-1.6
		c2.9,0,5.1,1.8,5.1,5.3v7.4h-2.6v-7H155.7z"/>
	<path class="st4" d="M172.8,36.7c-3.6,0-6.3-2.5-6.3-6.5c0-3.9,2.8-6.4,6.4-6.4c3.6,0,6.4,2.5,6.4,6.4
		C179.3,34.1,176.4,36.7,172.8,36.7z M172.8,34.4c1.9,0,3.8-1.4,3.8-4.2s-1.8-4.2-3.8-4.2c-1.9,0-3.7,1.4-3.7,4.2
		C169.2,33,170.9,34.4,172.8,34.4z"/>
	<path class="st4" d="M188.8,23.8c3.3,0,5.9,2.5,5.9,6.4s-2.6,6.5-5.9,6.5c-2.1,0-3.5-1-4.4-2v7.8h-2.6V24h2.6v1.8
		C185.2,24.8,186.8,23.8,188.8,23.8z M188.2,26c-1.9,0-3.8,1.5-3.8,4.2s1.9,4.2,3.8,4.2c2,0,3.8-1.6,3.8-4.3S190.2,26,188.2,26z"/>
	<path class="st4" d="M203.5,26.1H202V24h1.5v-3.1h2.6V24h3v2.1h-3V33c0,0.9,0.4,1.3,1.5,1.3h1.6v2.2h-2c-2.2,0-3.6-0.9-3.6-3.5
		v-6.9H203.5z"/>
	<path class="st4" d="M211.2,20.7c0-0.9,0.7-1.7,1.7-1.7c0.9,0,1.6,0.7,1.6,1.7s-0.7,1.7-1.6,1.7C211.9,22.3,211.2,21.6,211.2,20.7z
		 M211.6,24h2.6v12.5h-2.6V24z"/>
	<path class="st4" d="M220.1,24v14.9c0,2.5-1.4,3.5-3.6,3.5h-1.3v-2.2h0.9c1.1,0,1.5-0.4,1.5-1.3V24H220.1z M217.2,20.7
		c0-0.9,0.7-1.7,1.7-1.7c0.9,0,1.6,0.7,1.6,1.7s-0.7,1.7-1.6,1.7C217.9,22.3,217.2,21.6,217.2,20.7z"/>
	<path class="st4" d="M228.6,23.8c1.6,0,3.4,0.8,4.3,1.9v-6h2.6v16.8h-2.6v-1.9c-0.8,1.1-2.3,2.1-4.3,2.1c-3.3,0-5.9-2.7-5.9-6.5
		S225.3,23.8,228.6,23.8z M229.1,26c-1.9,0-3.8,1.5-3.8,4.1s1.9,4.3,3.8,4.3c2,0,3.8-1.5,3.8-4.2C232.9,27.5,231.1,26,229.1,26z"/>
</g>
<g id="circle">
	<g>
		<g>
			
				<linearGradient id="SVGID_1_" gradientUnits="userSpaceOnUse" x1="95.3919" y1="153.0647" x2="237.8652" y2="153.0647" gradientTransform="matrix(0.7465 -0.6654 -0.6654 -0.7465 140.4704 364.5912)">
				<stop  offset="0" style="stop-color:#0917DB"/>
				<stop  offset="1" style="stop-color:#594BDB"/>
			</linearGradient>
			<path class="st5" d="M236.4,164.9c-4.4,23.2-18.4,43.7-38.3,56.4c-5.8,3.7-13.5,2-17.2-3.8s-2-13.5,3.8-17.2
				c14.3-9,24-23.3,27.1-39.9c6.2-32.9-15.5-64.6-48.3-70.8C130.7,83.3,99,105,92.7,137.8c-1.3,6.8-7.8,11.2-14.6,9.9
				c-6.8-1.3-11.2-7.8-9.9-14.6c8.8-46.4,53.6-77,99.9-68.1C214.6,73.7,245.2,118.5,236.4,164.9z"/>
		</g>
	</g>
	<g>
		<g>
			<path class="st6" d="M236.4,164.9c-8.8,46.4-53.6,77-99.9,68.1c-46.3-8.8-76.9-53.6-68.1-99.9c1.3-6.8,7.8-11.2,14.6-9.9
				s11.2,7.8,9.9,14.6c-6.2,32.7,15.4,64.5,48.3,70.7s64.6-15.5,70.8-48.3c3.1-16.6-0.6-33.3-10.6-47.1c-4-5.5-2.9-13.3,2.7-17.4
				c5.5-4,13.3-2.9,17.4,2.7C235.3,117.5,240.8,141.7,236.4,164.9z"/>
		</g>
	</g>
</g>
<g>
	<g>
		<path class="st7" d="M114.8,134.6v26.5h-9v-19.8h-4.6v-6.7H114.8z"/>
		<path class="st7" d="M118.1,147.9c0-8.8,5-13.9,12-13.9c7,0,12,5.1,12,13.9s-5,13.9-12,13.9C123,161.8,118.1,156.7,118.1,147.9z
			 M133.1,147.9c0-5.1-1.3-6.7-3-6.7c-1.8,0-3,1.6-3,6.7s1.3,6.7,3,6.7C131.8,154.6,133.1,153,133.1,147.9z"/>
		<path class="st7" d="M144.2,147.9c0-8.8,5-13.9,12-13.9s12,5.1,12,13.9s-5,13.9-12,13.9C149.3,161.8,144.2,156.7,144.2,147.9z
			 M159.3,147.9c0-5.1-1.3-6.7-3-6.7c-1.8,0-3,1.6-3,6.7s1.3,6.7,3,6.7S159.3,153,159.3,147.9z"/>
		<path class="st7" d="M170,141.6c0-4.7,3-7.4,7.1-7.4s7.1,2.7,7.1,7.4s-3,7.4-7.1,7.4S170,146.4,170,141.6z M192.6,134.6h6.4
			l-18.1,26.5h-6.4L192.6,134.6z M178.7,141.6c0-2.6-0.9-3.3-1.7-3.3c-0.9,0-1.7,0.8-1.7,3.3c0,2.6,0.9,3.3,1.7,3.3
			C177.9,144.9,178.7,144.2,178.7,141.6z M189.4,154.1c0-4.7,3-7.4,7.1-7.4s7.1,2.7,7.1,7.4s-3,7.4-7.1,7.4S189.4,158.9,189.4,154.1
			z M198.1,154.1c0-2.6-0.9-3.3-1.7-3.3c-0.9,0-1.7,0.8-1.7,3.3c0,2.6,0.9,3.3,1.7,3.3C197.3,157.4,198.1,156.7,198.1,154.1z"/>
	</g>
</g>
<path class="st8" d="M186.1,170.7c0,1.6-1.3,2.9-3,2.9h-61.3c-1.7,0-3-1.3-3-2.9c0-1.6,1.3-2.9,3-2.9h61.3
	C184.7,167.7,186.1,169.1,186.1,170.7z"/>
<circle class="st9" cx="32.3" cy="272.7" r="9.3"/>
</svg>
