<?xml version="1.0" encoding="utf-8"?>
<!-- Generator: Adobe Illustrator 27.9.0, SVG Export Plug-In . SVG Version: 6.00 Build 0)  -->
<svg version="1.1" id="Layer_1" xmlns="http://www.w3.org/2000/svg" xmlns:xlink="http://www.w3.org/1999/xlink" x="0px" y="0px"
	 viewBox="0 0 500 500" style="enable-background:new 0 0 500 500;" xml:space="preserve">
<style type="text/css">
	.st0{fill:#FFA3BE;}
	.st1{fill:#BFC4F8;}
	.st2{fill:#F1F3FF;}
	.st3{fill:#FFFFFF;}
	.st4{fill:#474BCA;}
	.st5{fill:#E8EBF9;}
	.st6{fill:#8F98F8;}
	.st7{fill:#5A66D4;}
	.st8{fill:#FF62A7;}
	.st9{fill:#E1E6FF;}
	.st10{fill:#6D6696;}
	.st11{fill-rule:evenodd;clip-rule:evenodd;fill:#FFCC33;}
	.st12{fill-rule:evenodd;clip-rule:evenodd;fill:#FFF5D6;}
	.st13{fill-rule:evenodd;clip-rule:evenodd;fill:#85A3E0;}
	.st14{fill-rule:evenodd;clip-rule:evenodd;fill:#264D99;}
	.st15{fill-rule:evenodd;clip-rule:evenodd;fill:#366BC1;}
	.st16{fill:#264D99;}
					@keyframes float-ud {
	0% {
		transform: translatey(0px);
	}
	50% {
		transform: translatey(-20px);
	}
	100% {
		transform: translatey(0px);
	}
}

#welkoopblook {
	transform: translatey(0px);
	animation: float-ud 7s ease-in-out infinite;
}
#top-blade {
  animation: tailRotorAnim 0.05s infinite linear;
}

@keyframes tailRotorAnim {
  0% {
    transform: rotateX(330deg);
  }

  100% {
    transform: rotateX(360deg);
  }
}
</style>
<g>
	<circle id="XMLID_438_" class="st0" cx="475.6" cy="99.1" r="7.3"/>
	<path id="XMLID_436_" class="st1" d="M408.1,39l-3.6,0.1l-0.1-3.6c0-1.5-1.3-2.7-2.7-2.7l0,0c-1.5,0-2.7,1.3-2.7,2.7l0.1,3.6
		l-3.6,0.1c-1.5,0-2.7,1.3-2.7,2.7c0,1.5,1.3,2.7,2.7,2.7l3.6-0.1l0.1,3.6c0,1.5,1.3,2.7,2.7,2.7l0,0c1.5,0,2.7-1.3,2.7-2.7
		l-0.1-3.6l3.6-0.1c1.5,0,2.7-1.3,2.7-2.7C410.8,40.2,409.6,39,408.1,39z"/>
</g>
<g>
	<path class="st2" d="M455.5,471.7c0,15.6-12.7,28.3-28.3,28.3H71.5c-15.6,0-28.3-12.7-28.3-28.3V118.1c0-9.2,7.5-16.7,16.7-16.7
		h379c9.2,0,16.7,7.5,16.7,16.7v353.6H455.5z"/>
	<g>
		<g id="XMLID_407_">
			<path class="st3" d="M413.4,201.2H87.9c-10.6,0-19.2-8.6-19.2-19.2v-5.1c0-10.6,8.6-19.2,19.2-19.2h325.5
				c10.6,0,19.2,8.6,19.2,19.2v5.1C432.6,192.6,424,201.2,413.4,201.2z"/>
		</g>
		<g id="XMLID_406_">
			<path class="st4" d="M409.2,192.2L409.2,192.2c-7.7,0-14-6.3-14-14l0,0c0-7.7,6.3-14,14-14l0,0c7.7,0,14,6.3,14,14l0,0
				C423.2,186,417,192.2,409.2,192.2z"/>
		</g>
		<g id="XMLID_404_">
			<g id="XMLID_405_">
				<path class="st5" d="M264,184.7H101.1c-2.7,0-5-2.2-5-5l0,0c0-2.7,2.2-5,5-5H264c2.7,0,5,2.2,5,5l0,0
					C268.9,182.5,266.7,184.7,264,184.7z"/>
			</g>
		</g>
		<g id="XMLID_403_">
			<path class="st3" d="M409.2,189.7c-6.3,0-11.4-5.1-11.4-11.4c0-6.3,5.1-11.4,11.4-11.4s11.4,5.1,11.4,11.4
				C420.7,184.6,415.6,189.7,409.2,189.7z M409.2,178.1c-0.1,0-0.1,0-0.1,0.1s0.2,0.1,0.2,0C409.4,178.2,409.3,178.1,409.2,178.1z"
				/>
		</g>
		<g>
			<path class="st6" d="M267.5,304h-46.6c-3.9,0-7.1-3.2-7.1-7.1V295c0-3.9,3.2-7.1,7.1-7.1h46.6c3.9,0,7.1,3.2,7.1,7.1v1.9
				C274.7,300.8,271.5,304,267.5,304z"/>
		</g>
		<g>
			<path class="st7" d="M44.5,134.1h412.3v-23.2c0-5.2-4.2-9.4-9.4-9.4H53.9c-5.2,0-9.4,4.2-9.4,9.4V134.1z"/>
		</g>
		<g>
			<circle class="st0" cx="88" cy="117.8" r="6.9"/>
		</g>
		<g>
			<path class="st6" d="M240.9,275.5h-86c-3.9,0-7.1-3.2-7.1-7.1v-1.9c0-3.9,3.2-7.1,7.1-7.1h86c3.9,0,7.1,3.2,7.1,7.1v1.9
				C248,272.3,244.8,275.5,240.9,275.5z"/>
		</g>
		<g>
			<path class="st6" d="M201.5,304h-46.6c-3.9,0-7.1-3.2-7.1-7.1V295c0-3.9,3.2-7.1,7.1-7.1h46.6c3.9,0,7.1,3.2,7.1,7.1v1.9
				C208.6,300.8,205.4,304,201.5,304z"/>
		</g>
		<g>
			<circle class="st8" cx="64.1" cy="117.8" r="6.9"/>
		</g>
		<g>
			<circle class="st1" cx="113.1" cy="117.8" r="6.9"/>
		</g>
		<g>
			<path class="st4" d="M272.6,247.3H154.9c-3.9,0-7.1-3.2-7.1-7.1v-1.9c0-3.9,3.2-7.1,7.1-7.1h117.7c3.9,0,7.1,3.2,7.1,7.1v1.9
				C279.7,244.1,276.5,247.3,272.6,247.3z"/>
		</g>
		<g>
			<path class="st6" d="M267.5,435.5h-46.6c-3.9,0-7.1-3.2-7.1-7.1v-1.9c0-3.9,3.2-7.1,7.1-7.1h46.6c3.9,0,7.1,3.2,7.1,7.1v1.9
				C274.7,432.3,271.5,435.5,267.5,435.5z"/>
		</g>
		<g>
			<path class="st6" d="M240.9,407h-86c-3.9,0-7.1-3.2-7.1-7.1V398c0-3.9,3.2-7.1,7.1-7.1h86c3.9,0,7.1,3.2,7.1,7.1v1.9
				C248,403.8,244.8,407,240.9,407z"/>
		</g>
		<g>
			<path class="st6" d="M201.5,435.5h-46.6c-3.9,0-7.1-3.2-7.1-7.1v-1.9c0-3.9,3.2-7.1,7.1-7.1h46.6c3.9,0,7.1,3.2,7.1,7.1v1.9
				C208.6,432.3,205.4,435.5,201.5,435.5z"/>
		</g>
		<g>
			<path class="st4" d="M272.6,378.8H154.9c-3.9,0-7.1-3.2-7.1-7.1v-1.9c0-3.9,3.2-7.1,7.1-7.1h117.7c3.9,0,7.1,3.2,7.1,7.1v1.9
				C279.7,375.6,276.5,378.8,272.6,378.8z"/>
		</g>
		<g>
			<g id="XMLID_401_">
				<g id="XMLID_402_">
					<g>
						<path class="st4" d="M415.5,184.9c-0.2,0-0.5-0.1-0.7-0.3l-4.1-4.1c-0.4-0.4-0.4-1,0-1.4s1-0.4,1.4,0l4.1,4.1
							c0.4,0.4,0.4,1,0,1.4C416,184.8,415.7,184.9,415.5,184.9z"/>
					</g>
				</g>
			</g>
			<g>
				<g>
					<path class="st4" d="M408.9,182c-2.6,0-4.8-2.1-4.8-4.8s2.1-4.8,4.8-4.8s4.8,2.1,4.8,4.8S411.5,182,408.9,182z M408.9,174.7
						c-1.4,0-2.5,1.1-2.5,2.5s1.1,2.5,2.5,2.5s2.5-1.1,2.5-2.5C411.4,175.9,410.2,174.7,408.9,174.7z"/>
				</g>
			</g>
		</g>
	</g>
</g>
<g>
	<path class="st9" d="M114.2,481c0,8.2-6.8,15-15,15H42.8c-8.2,0-15-6.8-15-15v-90.9c0-8.2,6.8-15,15-15h56.4c8.2,0,15,6.8,15,15
		V481z"/>
	<g>
		<path class="st6" d="M65.5,425.4v57.7c0,3.1,2.5,5.6,5.6,5.6l0,0c3.1,0,5.6-2.5,5.6-5.6v-57.7c0-3.1-2.5-5.6-5.6-5.6l0,0
			C68,419.8,65.5,422.3,65.5,425.4z"/>
		<path class="st6" d="M45.9,452.4v30.7c0,3.1,2.5,5.6,5.6,5.6l0,0c3.1,0,5.6-2.5,5.6-5.6v-30.7c0-3.1-2.5-5.6-5.6-5.6l0,0
			C48.4,446.9,45.9,449.3,45.9,452.4z"/>
		<path class="st4" d="M84.9,403.6v79.5c0,3.1,2.5,5.6,5.6,5.6l0,0c3.1,0,5.6-2.5,5.6-5.6v-79.5c0-3.1-2.5-5.6-5.6-5.6l0,0
			C87.4,398,84.9,400.5,84.9,403.6z"/>
	</g>
	<path class="st10" d="M67.6,398.3c-0.2,0.6-0.5,1.2-1.2,1.3c-1,0.3-2-0.5-2-1.6c0-1.3,0-2.7,0-4.2c-0.2,0.2-0.4,0.3-0.5,0.5
		c-3.1,3.2-6.3,6.3-9.4,9.5c-1,1-1.8,1-2.8,0c-1.7-1.7-3.3-3.3-5-5c0,0-0.1,0-0.1-0.1c-1.3,1.3-2.7,2.7-4,4
		c-1.4,1.4-2.8,2.8-4.2,4.1c-0.4,0.4-0.8,0.6-1.3,0.9c-0.2,0-0.4,0-0.6,0c-0.7-0.2-1.1-0.7-1.3-1.3c0-0.2,0-0.4,0-0.7
		c0.3-0.4,0.6-0.9,1-1.3c3-3,6-6,9-9c1-1,1.8-1,2.8,0c1.7,1.7,3.3,3.3,5,5c0,0,0.1,0,0.1,0.1c3-3,5.9-6,9-9c-0.3,0-0.6,0-0.9,0
		c-0.9,0-1.9,0-2.8,0c-1.1,0-1.8-0.4-1.9-1.2c-0.2-0.9,0.2-1.5,1.2-2c2.9,0,5.8,0,8.7,0c0.7,0.2,1.1,0.7,1.3,1.3
		C67.6,392.6,67.6,395.4,67.6,398.3z"/>
</g>
<g>
	<g>
		<path class="st6" d="M344,494.4L344,494.4c4.3,2.5,9.9,1,12.4-3.3l32.9-56.9l-15.7-9.1L340.7,482
			C338.2,486.3,339.7,491.8,344,494.4z"/>
		<path class="st6" d="M451.3,494.4L451.3,494.4c-4.3,2.5-9.9,1-12.4-3.3L406,434.2l15.7-9.1l32.9,56.9
			C457.2,486.3,455.7,491.8,451.3,494.4z"/>
	</g>
	<g id="XMLID_408_">
		<circle id="XMLID_418_" class="st3" cx="397.7" cy="411.5" r="65.8"/>
		<g id="XMLID_414_">
			<path id="XMLID_415_" class="st0" d="M351.1,458.1c-12.5-12.5-19.3-29-19.3-46.6s6.9-34.2,19.3-46.6c12.5-12.5,29-19.3,46.6-19.3
				s34.2,6.9,46.6,19.3c12.5,12.5,19.3,29,19.3,46.6s-6.9,34.2-19.3,46.6s-29,19.3-46.6,19.3S363.5,470.6,351.1,458.1z M345.1,411.5
				c0,29,23.6,52.6,52.6,52.6s52.6-23.6,52.6-52.6s-23.6-52.6-52.6-52.6S345.1,382.5,345.1,411.5z"/>
		</g>
		<g id="XMLID_410_">
			<path id="XMLID_411_" class="st0" d="M357.5,411.5c0-22.2,18-40.2,40.2-40.2s40.2,18,40.2,40.2s-18,40.2-40.2,40.2
				S357.5,433.7,357.5,411.5z M370.8,411.5c0,14.8,12.1,26.9,26.9,26.9s26.9-12.1,26.9-26.9s-12.1-26.9-26.9-26.9
				S370.8,396.7,370.8,411.5z"/>
		</g>
		<circle id="XMLID_409_" class="st0" cx="397.7" cy="411.5" r="10.6"/>
	</g>
	<path class="st6" d="M395.7,413.5c-0.1-0.1-0.1-0.1-0.1-0.2c-1.1-1.2-1-3.1,0.2-4.2l55.9-55.9l-1.5-7.9l17-17l2.2,11.6l11.6,2.2
		l-17,17l-7.9-1.5l-55.9,55.9C398.9,414.7,396.9,414.7,395.7,413.5L395.7,413.5L395.7,413.5z"/>
</g>
<g>
	<circle id="XMLID_8_" class="st0" cx="101" cy="286.8" r="7.3"/>
	<path id="XMLID_1_" class="st1" d="M33.5,346.9l-3.6-0.1l-0.1,3.6c0,1.5-1.3,2.7-2.7,2.7l0,0c-1.5,0-2.7-1.3-2.7-2.7l0.1-3.6
		l-3.6-0.1c-1.5,0-2.7-1.3-2.7-2.7c0-1.5,1.3-2.7,2.7-2.7l3.6,0.1l0.1-3.6c0-1.5,1.3-2.7,2.7-2.7l0,0c1.5,0,2.7,1.3,2.7,2.7
		l-0.1,3.6l3.6,0.1c1.5,0,2.7,1.3,2.7,2.7C36.3,345.8,35,347,33.5,346.9z"/>
</g>
<g id="welkoopblook">
	<g id="group2">
		<g id="helicopter">
			<g>
				<rect x="73.5" y="82.3" class="st6" width="2.4" height="90.9"/>
			</g>
			<path class="st6" d="M102.9,57.1v-4.2c0-6.3-5.1-11.5-11.5-11.5H79.6c-9.9,0-19.3,4.1-26.1,11.4L44.1,63c-2,2.1-3.1,4.9-3.1,7.8
				l0,0c0,6.3,5.1,11.5,11.5,11.5h38.8c6.3,0,11.5-5.1,11.5-11.5L102.9,57.1L102.9,57.1z"/>
			<rect x="102.9" y="57.1" class="st6" width="29.3" height="13"/>
			<polygon class="st6" points="152.2,41.4 141.4,41.4 126.2,61.8 137,61.8 			"/>
			<polygon class="st6" points="146.6,74.7 137,61.8 126.2,61.8 135.8,74.7 			"/>
			<rect x="79.7" y="32.6" class="st4" width="3" height="8.7"/>
			<rect x="60" y="82.3" class="st4" width="3" height="8.1"/>
			<rect x="84.4" y="82.3" class="st4" width="3" height="8.1"/>
			<circle class="st6" cx="81.2" cy="30.9" r="3.2"/>
			<g>
				<path class="st7" d="M107.2,91.9H56.1c-5.6,0-11-2.3-14.8-6.4c-0.6-0.6-0.5-1.6,0.1-2.1c0.6-0.6,1.6-0.5,2.1,0.1
					c3.3,3.5,7.9,5.4,12.6,5.4h51.1c0.8,0,1.5,0.7,1.5,1.5S108,91.9,107.2,91.9z"/>
			</g>
			<path class="st4" d="M65.4,64.6c0.4,0,0.8-0.2,0.9-0.6l6.3-14.6c0.3-0.7-0.2-1.4-0.9-1.4H59c-2,1.4-3.8,3-5.5,4.8L44.1,63
				c-0.5,0.5-0.9,1-1.2,1.6H65.4z"/>
			<path class="st4" d="M84.1,57.8l3.6-8.4c0.3-0.7-0.2-1.4-0.9-1.4h-9c-0.4,0-0.8,0.2-0.9,0.6L73.2,57c-0.3,0.7,0.2,1.4,0.9,1.4h9
				C83.5,58.4,83.9,58.1,84.1,57.8z"/>
		</g>
		<g>
			<g>
				<g transform="translate(0 32)">
					<path class="st11" d="M74.8,229.4c-15.6,0-28.3-12.7-28.3-28.3s12.7-28.3,28.3-28.3s28.3,12.7,28.3,28.3
						C103.1,216.8,90.4,229.4,74.8,229.4"/>
				</g>
				<path class="st12" d="M95.8,232.2c0,12-9.7,21.7-21.7,21.7s-21.7-9.7-21.7-21.7s9.7-21.7,21.7-21.7
					C86.1,210.4,95.8,220.2,95.8,232.2"/>
				<path class="st11" d="M74.9,217.1l4.7,9.6l10.4,1.5l-7.5,7.5l1.8,10.6l-9.3-5l-9.3,5l1.8-10.6l-7.5-7.5l10.4-1.5L74.9,217.1z"/>
				<g transform="translate(28)">
					<path class="st13" d="M46.8,203.9c3.2,0,6.3,0.5,9.2,1.5l16.5-26.8H57.8L42,204.3C43.6,204.1,45.1,203.9,46.8,203.9"/>
				</g>
				<path class="st14" d="M70.2,204.4l4.7-8l-10.4-17.8H50.7l15.6,26.8C67.6,205,68.9,204.7,70.2,204.4"/>
			</g>
			<polygon class="st15" points="95.1,169.6 56.4,169.6 50.7,178.6 50.7,178.7 100.4,178.7 100.4,178.6 			"/>
		</g>
	</g>
	<g id="top-blade">
		<path class="st16" d="M132.6,29c0,0.9-0.8,1.6-1.9,1.7L32,34.1c-1.1,0-2-0.6-2.1-1.5c0-0.9,0.8-1.6,1.9-1.7l98.6-3.4
			C131.6,27.4,132.5,28.1,132.6,29z"/>
	</g>
</g>
</svg>
