<?xml version="1.0" encoding="utf-8"?>
<!-- Generator: Adobe Illustrator 25.2.1, SVG Export Plug-In . SVG Version: 6.00 Build 0)  -->
<svg version="1.1" id="Layer_1" xmlns="http://www.w3.org/2000/svg" xmlns:xlink="http://www.w3.org/1999/xlink" x="0px" y="0px"
	 viewBox="0 0 300 300" style="enable-background:new 0 0 300 300;" xml:space="preserve">
<style type="text/css">
	.st0{fill:#F5F7F6;}
	.st1{fill:url(#SVGID_1_);}
	.st2{fill:#33CC79;}
	.st3{fill:#F55A93;}
	.st4{fill:#E3E9EE;}
	.st5{fill:#6C6884;}
	.st6{fill:#6D6696;}
	.st7{fill:#A09BB6;}
	.st8{fill:#ACB7C9;}
	#circle {
        transform-box: fill-box;
        transform-origin: 50% 50%;
        animation: spinn 10s linear infinite;
        }

        @keyframes spinn {
        0% { transform: rotate(-360deg); }
        100% { transform: rotate(0deg); }
        }
</style>
<rect class="st0" width="300" height="300"/>
<g id="circle">
	<g>
		
			<linearGradient id="SVGID_1_" gradientUnits="userSpaceOnUse" x1="329.4226" y1="151.5208" x2="442.3849" y2="64.5848" gradientTransform="matrix(0.7925 -0.6099 -0.6099 -0.7925 -75.7476 470.8299)">
			<stop  offset="0" style="stop-color:#00A551"/>
			<stop  offset="4.526436e-03" style="stop-color:#00A551"/>
			<stop  offset="0.3971" style="stop-color:#1CBA67"/>
			<stop  offset="0.7419" style="stop-color:#2DC774"/>
			<stop  offset="1" style="stop-color:#33CC79"/>
		</linearGradient>
		<path class="st1" d="M202.2,217.7c-18.7,14.4-42.8,20.4-66.1,16.6c-6.8-1.1-11.4-7.5-10.3-14.3s7.5-11.4,14.3-10.3
			c16.7,2.8,33.4-1.4,46.8-11.8c26.5-20.4,31.4-58.5,11.1-85c-20.4-26.5-58.5-31.4-85-11.1c-5.5,4.2-13.3,3.2-17.5-2.3
			S92.3,86.2,97.8,82c37.4-28.8,91.2-21.8,119.9,15.6C246.5,135.2,239.5,189,202.2,217.7z"/>
	</g>
	<g>
		<path class="st2" d="M202.1,217.8c-37.4,28.8-91.2,21.8-119.9-15.6S60.5,111,97.8,82.2c5.5-4.2,13.3-3.2,17.5,2.3
			s3.2,13.3-2.3,17.5c-26.5,20.4-31.4,58.5-11.1,85c20.4,26.5,58.5,31.4,85,11.1c13.4-10.3,21.7-25.3,23.4-42.2
			c0.7-6.8,6.7-11.9,13.6-11.2c6.8,0.7,11.9,6.7,11.2,13.6C232.8,181.6,220.8,203.4,202.1,217.8z"/>
	</g>
</g>
<g>
	<g>
		<path class="st3" d="M112.4,135.6v26.5h-9v-19.8h-4.6v-6.7H112.4z"/>
		<path class="st3" d="M115.7,148.9c0-8.8,5-13.9,12-13.9s12,5.1,12,13.9s-5,13.9-12,13.9C120.6,162.7,115.7,157.6,115.7,148.9z
			 M130.7,148.9c0-5.1-1.3-6.7-3-6.7c-1.8,0-3,1.6-3,6.7c0,5.1,1.3,6.7,3,6.7C129.4,155.6,130.7,153.9,130.7,148.9z"/>
		<path class="st3" d="M141.8,148.9c0-8.8,5-13.9,12-13.9s12,5.1,12,13.9s-5,13.9-12,13.9C146.9,162.7,141.8,157.6,141.8,148.9z
			 M156.9,148.9c0-5.1-1.3-6.7-3-6.7s-3,1.6-3,6.7c0,5.1,1.3,6.7,3,6.7C155.6,155.6,156.9,153.9,156.9,148.9z"/>
		<path class="st3" d="M167.6,142.6c0-4.7,3-7.4,7.1-7.4c4,0,7.1,2.7,7.1,7.4s-3,7.4-7.1,7.4S167.6,147.3,167.6,142.6z M190.2,135.6
			h6.4l-18.1,26.5h-6.4L190.2,135.6z M176.3,142.6c0-2.6-0.9-3.3-1.7-3.3c-0.9,0-1.7,0.8-1.7,3.3c0,2.6,0.9,3.3,1.7,3.3
			C175.5,145.9,176.3,145.1,176.3,142.6z M187,155.1c0-4.7,3-7.4,7.1-7.4s7.1,2.7,7.1,7.4s-3,7.4-7.1,7.4S187,159.8,187,155.1z
			 M195.7,155.1c0-2.6-0.9-3.3-1.7-3.3c-0.9,0-1.7,0.8-1.7,3.3c0,2.6,0.9,3.3,1.7,3.3C194.9,158.4,195.7,157.6,195.7,155.1z"/>
	</g>
</g>
<path class="st4" d="M183.7,171.6c0,1.6-1.4,2.9-3,2.9h-61.3c-1.6,0-3-1.3-3-2.9c0-1.6,1.4-2.9,3-2.9h61.3
	C182.3,168.7,183.7,170,183.7,171.6z"/>
<g>
	<circle class="st2" cx="29.5" cy="271.7" r="10.3"/>
	<circle class="st4" cx="149.8" cy="271.7" r="10.3"/>
	<g>
		<g>
			<path class="st5" d="M46.8,266.8h1.4l1.7,6.7l1.9-6.7h1.5l1.7,6.7l1.7-6.7h1.5l-2.5,8.3h-1.5l-1.7-6.3l-1.8,6.3h-1.5L46.8,266.8z
				"/>
			<path class="st5" d="M62.2,275.2c-1.9,0-3.3-1.3-3.3-3.4s1.3-3.4,3.3-3.4c1.9,0,3.2,1.3,3.2,3.2c0,0.2,0,0.4,0,0.7h-5
				c0.1,1.1,0.9,1.7,1.9,1.7c0.8,0,1.3-0.4,1.5-0.9h1.5C64.8,274.3,63.8,275.2,62.2,275.2z M60.3,271.2H64c0-1-0.8-1.7-1.8-1.7
				S60.5,270.2,60.3,271.2z"/>
			<path class="st5" d="M66.7,266.3h1.4v8.8h-1.4V266.3z"/>
			<path class="st5" d="M73,266.3h1.4v5.1l2.4-2.9h1.9l-3,3.3l3,3.3h-1.8l-2.4-2.8v2.8H73V266.3z"/>
			<path class="st5" d="M82.4,275.2c-1.9,0-3.3-1.3-3.3-3.4s1.5-3.4,3.3-3.4s3.3,1.3,3.3,3.4S84.3,275.2,82.4,275.2z M82.4,274
				c1,0,2-0.7,2-2.2s-1-2.2-2-2.2s-1.9,0.7-1.9,2.2S81.4,274,82.4,274z"/>
			<path class="st5" d="M90,275.2c-1.9,0-3.3-1.3-3.3-3.4s1.5-3.4,3.3-3.4s3.3,1.3,3.3,3.4S91.9,275.2,90,275.2z M90,274
				c1,0,2-0.7,2-2.2s-1-2.2-2-2.2s-1.9,0.7-1.9,2.2S89,274,90,274z"/>
			<path class="st5" d="M98.4,268.4c1.7,0,3.1,1.3,3.1,3.4c0,2-1.4,3.4-3.1,3.4c-1.1,0-1.9-0.5-2.3-1.1v4.1h-1.4v-9.7h1.4v1
				C96.5,268.9,97.3,268.4,98.4,268.4z M98.1,269.6c-1,0-2,0.8-2,2.2c0,1.4,1,2.2,2,2.2s2-0.8,2-2.2S99.1,269.6,98.1,269.6z"/>
			<path class="st5" d="M106.5,268.4c1.7,0,3.1,1.3,3.1,3.4c0,2-1.4,3.4-3.1,3.4c-1.1,0-1.9-0.5-2.3-1.1v1h-1.4v-8.8h1.4v3.2
				C104.6,268.9,105.4,268.4,106.5,268.4z M106.2,269.6c-1,0-2,0.8-2,2.2c0,1.4,1,2.2,2,2.2s2-0.8,2-2.2S107.2,269.6,106.2,269.6z"
				/>
			<path class="st5" d="M110.9,266.3h1.4v8.8h-1.4V266.3z"/>
			<path class="st5" d="M116.9,275.2c-1.9,0-3.3-1.3-3.3-3.4s1.5-3.4,3.3-3.4s3.3,1.3,3.3,3.4S118.8,275.2,116.9,275.2z M116.9,274
				c1,0,2-0.7,2-2.2s-1-2.2-2-2.2s-1.9,0.7-1.9,2.2S115.9,274,116.9,274z"/>
			<path class="st5" d="M121.6,266.3h1.4v5.1l2.4-2.9h1.9l-3,3.3l3,3.3h-1.8l-2.4-2.8v2.8h-1.4L121.6,266.3L121.6,266.3z"/>
		</g>
	</g>
	<g>
		<g>
			<path class="st5" d="M169.2,266.8h5.8v1.1h-2.2v7.2h-1.4v-7.2h-2.2L169.2,266.8L169.2,266.8z"/>
			<path class="st5" d="M179.2,275.2c-1.9,0-3.3-1.3-3.3-3.4s1.3-3.4,3.3-3.4c1.9,0,3.2,1.3,3.2,3.2c0,0.2,0,0.4,0,0.7h-5
				c0.1,1.1,0.9,1.7,1.9,1.7c0.8,0,1.3-0.4,1.5-0.9h1.5C181.9,274.3,180.8,275.2,179.2,275.2z M177.4,271.2h3.6c0-1-0.8-1.7-1.8-1.7
				S177.5,270.2,177.4,271.2z"/>
			<path class="st5" d="M186.8,266.3h1.4v5.1l2.4-2.9h1.9l-3,3.3l3,3.3h-1.8l-2.4-2.8v2.8h-1.4L186.8,266.3L186.8,266.3z"/>
			<path class="st5" d="M196.3,275.2c-1.9,0-3.3-1.3-3.3-3.4s1.5-3.4,3.3-3.4s3.3,1.3,3.3,3.4S198.2,275.2,196.3,275.2z M196.3,274
				c1,0,2-0.7,2-2.2s-1-2.2-2-2.2s-1.9,0.7-1.9,2.2C194.4,273.3,195.3,274,196.3,274z"/>
			<path class="st5" d="M203.9,275.2c-1.9,0-3.3-1.3-3.3-3.4s1.5-3.4,3.3-3.4s3.3,1.3,3.3,3.4S205.8,275.2,203.9,275.2z M203.9,274
				c1,0,2-0.7,2-2.2s-1-2.2-2-2.2s-1.9,0.7-1.9,2.2S202.9,274,203.9,274z"/>
			<path class="st5" d="M212.3,268.4c1.7,0,3.1,1.3,3.1,3.4c0,2-1.4,3.4-3.1,3.4c-1.1,0-1.9-0.5-2.3-1.1v4.1h-1.4v-9.7h1.4v1
				C210.4,268.9,211.2,268.4,212.3,268.4z M212,269.6c-1,0-2,0.8-2,2.2c0,1.4,1,2.2,2,2.2s2-0.8,2-2.2S213,269.6,212,269.6z"/>
			<path class="st5" d="M223.4,268.4c1.7,0,3.1,1.3,3.1,3.4c0,2-1.4,3.4-3.1,3.4c-1.1,0-1.9-0.5-2.3-1.1v4.1h-1.4v-9.7h1.4v1
				C221.6,268.9,222.4,268.4,223.4,268.4z M223.1,269.6c-1,0-2,0.8-2,2.2c0,1.4,1,2.2,2,2.2s2-0.8,2-2.2S224.2,269.6,223.1,269.6z"
				/>
			<path class="st5" d="M229.2,275.1h-1.4v-6.6h1.4v1c0.4-0.7,1-1.1,2-1.1v1.4h-0.3c-1,0-1.6,0.4-1.6,1.8L229.2,275.1L229.2,275.1z"
				/>
			<path class="st5" d="M235.3,275.2c-1.9,0-3.3-1.3-3.3-3.4s1.5-3.4,3.3-3.4s3.3,1.3,3.3,3.4S237.2,275.2,235.3,275.2z M235.3,274
				c1,0,2-0.7,2-2.2s-1-2.2-2-2.2s-1.9,0.7-1.9,2.2C233.4,273.3,234.3,274,235.3,274z"/>
			<path class="st5" d="M242.7,268.4c0.9,0,1.8,0.4,2.3,1v-3.2h1.4v8.8H245v-1c-0.4,0.6-1.2,1.1-2.3,1.1c-1.7,0-3.1-1.4-3.1-3.4
				C239.6,269.7,241,268.4,242.7,268.4z M243,269.6c-1,0-2,0.8-2,2.2s1,2.2,2,2.2s2-0.8,2-2.2S244,269.6,243,269.6z"/>
			<path class="st5" d="M254.1,275.1h-1.4v-0.8c-0.4,0.6-1.2,0.9-1.9,0.9c-1.5,0-2.7-1-2.7-2.8v-3.9h1.3v3.7c0,1.2,0.7,1.8,1.6,1.8
				c1,0,1.7-0.6,1.7-1.8v-3.7h1.4L254.1,275.1L254.1,275.1z"/>
			<path class="st5" d="M258.6,268.4c1.6,0,2.7,0.8,3,2.2h-1.5c-0.2-0.6-0.8-1-1.6-1c-1.1,0-1.8,0.8-1.8,2.2c0,1.4,0.7,2.3,1.8,2.3
				c0.8,0,1.3-0.4,1.6-1h1.5c-0.4,1.3-1.4,2.2-3,2.2c-1.9,0-3.2-1.3-3.2-3.4C255.4,269.7,256.7,268.4,258.6,268.4z"/>
			<path class="st5" d="M263.2,269.6h-0.8v-1.1h0.8v-1.6h1.4v1.6h1.6v1.1h-1.6v3.6c0,0.5,0.2,0.7,0.8,0.7h0.8v1.1h-1.1
				c-1.2,0-1.9-0.5-1.9-1.8L263.2,269.6L263.2,269.6z"/>
			<path class="st5" d="M270.2,275.2c-1.9,0-3.3-1.3-3.3-3.4s1.3-3.4,3.3-3.4c1.9,0,3.2,1.3,3.2,3.2c0,0.2,0,0.4,0,0.7h-5
				c0.1,1.1,0.9,1.7,1.9,1.7c0.8,0,1.3-0.4,1.5-0.9h1.5C272.9,274.3,271.9,275.2,270.2,275.2z M268.4,271.2h3.6c0-1-0.8-1.7-1.8-1.7
				C269.3,269.5,268.5,270.2,268.4,271.2z"/>
			<path class="st5" d="M279.4,271.4c0-1.2-0.7-1.8-1.6-1.8c-1,0-1.7,0.6-1.7,1.8v3.7h-1.4v-6.6h1.4v0.8c0.4-0.5,1.2-0.9,2-0.9
				c1.5,0,2.7,1,2.7,2.8v3.9h-1.3v-3.7H279.4z"/>
		</g>
	</g>
</g>
<g>
	<path class="st6" d="M49.7,31.3c-0.2,0.6-0.5,1.2-1.2,1.3c-1,0.3-2-0.5-2-1.6c0-1.3,0-2.7,0-4.2c-0.2,0.2-0.4,0.3-0.5,0.5
		c-3.1,3.2-6.3,6.3-9.4,9.5c-1,1-1.8,1-2.8,0c-1.7-1.7-3.3-3.3-5-5c0,0-0.1,0-0.1-0.1c-1.3,1.3-2.7,2.7-4,4
		c-1.4,1.4-2.8,2.8-4.2,4.1c-0.4,0.4-0.8,0.6-1.3,0.9c-0.2,0-0.4,0-0.6,0c-0.7-0.2-1.1-0.7-1.3-1.3c0-0.2,0-0.4,0-0.7
		c0.3-0.4,0.6-0.9,1-1.3c3-3,6-6,9-9c1-1,1.8-1,2.8,0c1.7,1.7,3.3,3.3,5,5c0,0,0.1,0,0.1,0.1c3-3,5.9-6,9-9c-0.3,0-0.6,0-0.9,0
		c-0.9,0-1.9,0-2.8,0c-1.1,0-1.8-0.4-1.9-1.2c-0.2-0.9,0.2-1.5,1.2-2c2.9,0,5.8,0,8.7,0c0.7,0.2,1.1,0.7,1.3,1.3
		C49.7,25.6,49.7,28.4,49.7,31.3z"/>
	<g>
		<g>
			<path class="st7" d="M71.6,34.2h-6.7l-1.1,3.3H61l5.7-16h3l5.7,16h-2.8L71.6,34.2z M68.2,24.7l-2.6,7.4h5.2L68.2,24.7z"/>
			<path class="st7" d="M80.6,37.5H78V24.8h2.6v1.8c0.7-1.3,2-2,3.8-2v2.7h-0.7c-1.9,0-3.1,0.8-3.1,3.5
				C80.6,30.8,80.6,37.5,80.6,37.5z"/>
			<path class="st7" d="M87.2,27h-1.5v-2.1h1.5v-3.1h2.6v3.1h3.1V27h-3.1v7c0,0.9,0.4,1.3,1.5,1.3h1.6v2.2h-2.1
				c-2.3,0-3.7-0.9-3.7-3.5L87.2,27L87.2,27z"/>
			<path class="st7" d="M95,21.5c0-0.9,0.7-1.7,1.7-1.7c0.9,0,1.7,0.7,1.7,1.7c0,0.9-0.7,1.7-1.7,1.7S95,22.4,95,21.5z M95.3,24.8
				H98v12.7h-2.6L95.3,24.8L95.3,24.8z"/>
			<path class="st7" d="M101.4,20.5h2.6v9.9l4.6-5.5h3.6l-5.8,6.3l5.8,6.3h-3.5L104,32v5.4h-2.6V20.5z"/>
			<path class="st7" d="M119.6,37.7c-3.6,0-6.3-2.6-6.3-6.5c0-4,2.6-6.5,6.3-6.5c3.6,0,6.2,2.5,6.2,6.2c0,0.4,0,0.8-0.1,1.3H116
				c0.2,2.1,1.7,3.4,3.6,3.4c1.6,0,2.5-0.8,3-1.8h2.8C124.7,35.9,122.7,37.7,119.6,37.7z M116,30h7c0-2-1.6-3.2-3.5-3.2
				C117.7,26.8,116.3,28,116,30z"/>
			<path class="st7" d="M128.3,20.5h2.6v17h-2.6V20.5z"/>
			<path class="st7" d="M139.8,37.7c-3.6,0-6.3-2.6-6.3-6.5c0-4,2.6-6.5,6.3-6.5c3.6,0,6.2,2.5,6.2,6.2c0,0.4,0,0.8-0.1,1.3h-9.7
				c0.2,2.1,1.7,3.4,3.6,3.4c1.6,0,2.5-0.8,3-1.8h2.8C144.9,35.9,142.9,37.7,139.8,37.7z M136.2,30h7c0-2-1.6-3.2-3.5-3.2
				C137.9,26.8,136.5,28,136.2,30z"/>
			<path class="st7" d="M157.5,30.4c0-2.3-1.3-3.5-3.2-3.5s-3.2,1.2-3.2,3.5v7.1h-2.6V24.8h2.6v1.4c0.8-1,2.2-1.7,3.8-1.7
				c3,0,5.2,1.9,5.2,5.4v7.5h-2.6V30.4z"/>
		</g>
	</g>
	<g>
		<path class="st8" d="M276.2,25c0,0.5-0.5,1-1,1h-1c-0.6,0-1-0.5-1-1v-1c0-0.6,0.4-1,1-1h1c0.5,0,1,0.4,1,1V25z"/>
		<path class="st8" d="M282.7,25c0,0.5-0.4,1-1,1h-1c-0.5,0-1-0.5-1-1v-1c0-0.6,0.5-1,1-1h1c0.6,0,1,0.4,1,1V25z"/>
		<path class="st8" d="M282.7,32.5c0,0.5-0.4,1-1,1h-1c-0.5,0-1-0.5-1-1v-1c0-0.5,0.5-1,1-1h1c0.6,0,1,0.5,1,1V32.5z"/>
		<path class="st8" d="M276.2,32.5c0,0.5-0.5,1-1,1h-1c-0.6,0-1-0.5-1-1v-1c0-0.5,0.4-1,1-1h1c0.5,0,1,0.5,1,1V32.5z"/>
		<path class="st8" d="M276.2,40.1c0,0.5-0.5,1-1,1h-1c-0.6,0-1-0.5-1-1v-1c0-0.6,0.4-1,1-1h1c0.5,0,1,0.4,1,1V40.1z"/>
		<path class="st8" d="M282.7,39.9c0,0.5-0.4,1-1,1h-1c-0.5,0-1-0.5-1-1v-1c0-0.5,0.5-1,1-1h1c0.6,0,1,0.5,1,1V39.9z"/>
	</g>
</g>
</svg>
