<?xml version="1.0" encoding="utf-8"?>
<!-- Generator: Adobe Illustrator 25.2.1, SVG Export Plug-In . SVG Version: 6.00 Build 0)  -->
<svg version="1.1" id="Layer_1" xmlns="http://www.w3.org/2000/svg" xmlns:xlink="http://www.w3.org/1999/xlink" x="0px" y="0px"
	 viewBox="0 0 2500 639.4" style="enable-background:new 0 0 2500 639.4;" xml:space="preserve">
<style type="text/css">
	.st0{fill:#202026;}
	.st1{fill:#33CC79;}
	.st2{fill:#EED064;}
	.st3{fill:#6864ED;}
</style>
<g>
	<g>
		<g>
			<path class="st0" d="M771.9,276.7c-29.3,0-44.3,13.7-44.9,41l-23,168.9h-67.4l23-155.2c8.8-74.6,37.8-113.3,113.3-113.3
				c33.9,0,60.2,7.5,79.1,22.5c18.9-14.3,45.2-21.5,79.1-21.5c75.5,0,112.9,37.8,112.3,113.3v155.3h-34.2
				c-22.1-1.3-33.2-12.4-33.2-33.2V318.7c-1.3-27.3-16.6-41-45.9-41c-29.3,0-44.3,13.7-44.9,41v167.9h-67.4V317.7
				C816.5,290.4,801.2,276.7,771.9,276.7z"/>
			<path class="st0" d="M1315.7,405.6c-7.8,29.9-20.8,51.8-39.1,65.4c-21.5,14.3-46.9,21.5-76.2,21.5
				c-80.1-2.6-120.1-48.8-120.1-138.7s40.4-135.1,121.1-135.7c84,0,123.4,51.8,118.1,155.3h-170.9c2.6,40.4,20.2,60.5,52.7,60.5
				c15.6,0,29.9-6.2,43-18.6c5.9-6.5,13.3-9.8,22.5-9.8h48.9V405.6z M1249.3,325.5c-3.9-35.2-20.2-52.7-48.8-52.7
				c-28.6,0-45.6,17.6-50.8,52.7H1249.3z"/>
			<path class="st0" d="M1387.5,483.2c-25.1-2.3-37.3-18.1-36.6-47.4v-289h34.2c8.5,0,15.9,3.3,22.5,9.8c6.5,6.5,9.8,14.3,9.8,23.4
				v42h40v14.6c0,9.8-3.3,17.7-9.8,23.9s-14.3,9.3-23.4,9.3h-6.8v146.5c0,11.1,6.5,16.6,19.5,16.6h20.5v50.8
				C1435.8,485.7,1412.6,485.5,1387.5,483.2z"/>
			<path class="st0" d="M1587.2,491.5c-26,2-48.2-1.6-66.4-10.7c-27.3-13.7-41-37.8-41-72.3c0.7-26.7,9.8-46.9,27.3-60.5
				c17.6-13.7,46.5-22.5,86.9-26.4c28.6-3.3,43-12,43-26.4c-1.3-15-15.6-22.5-43-22.5c-23.4,0-36.8,6.2-40,18.6h-66.4
				c7.8-48.8,42.3-73.2,103.5-73.2c72.9,0,110,24.4,111.3,73.2v89.8c0,44.9-16.3,76.2-48.8,93.7C1636,484,1613.9,489.6,1587.2,491.5
				z M1585.2,369.5c-26.7,5.2-40,17.6-40,37.1c1.3,20.8,12.4,31.2,33.2,31.2c18.2,0,32.9-5.2,43.9-15.6
				c10.4-10.4,15.6-25.1,15.6-43.9v-24.4C1622.3,360.4,1604.8,365.6,1585.2,369.5z"/>
			<path class="st0" d="M1734.6,433.9l141.6-156.2h-99.6c-9.8,0-17.9-3.3-24.4-9.8s-9.8-14.6-9.8-24.4V222h216.8v56.6L1818.6,429
				h144.5v57.6h-228.5V433.9z"/>
			<path class="st0" d="M2221.9,355.8c0,91.1-40,136.7-120.1,136.7c-80.1,0-120.1-45.6-120.1-136.7c0-91.8,40-137.7,120.1-137.7
				C2181.8,218.1,2221.9,264,2221.9,355.8z M2049,355.8c0.7,51.4,17.9,77.1,51.8,77.1c33.9,0,51.1-26.4,51.8-79.1
				c0-51.4-16.9-77.1-50.8-77.1C2066.6,276.7,2049,303.1,2049,355.8z"/>
			<path class="st0" d="M2445.5,486.7c-22.1-1.3-33.2-12.4-33.2-33.2V317.7c-1.3-27.3-16.6-41-45.9-41s-44.3,13.7-44.9,41v168.9
				h-67.4V331.4c0-75.5,37.8-113.3,113.3-113.3s112.9,37.8,112.3,113.3v155.3H2445.5z"/>
		</g>
	</g>
	<g>
		<path class="st1" d="M210.8,361.3l-102.9,27.9c-20.4,5-22.9,33.2-3.9,41.9l36.8,17.8c3.9,2.5,7.5,6.4,10.1,10.1l17.8,36.8
			c8.9,19,35.7,15.3,41.9-3.9L238.4,389C242.6,371.4,227.2,357.2,210.8,361.3z"/>
		<g>
			<path class="st2" d="M410.2,171.5c-11.4,0-20.4-8.9-20.4-20.4l0,0c0-41.9-34.3-75-75-75s-75,34.3-75,75l0,0
				c0,11.4-8.9,20.4-20.4,20.4s-20.4-8.9-20.4-20.4l0,0c0-63.6,50.8-114.4,114.4-114.4s114.4,50.8,114.4,114.4l0,0
				C429.4,162.8,420.5,171.5,410.2,171.5z"/>
		</g>
		<g>
			<circle class="st2" cx="397.6" cy="574.7" r="27.9"/>
			<circle class="st2" cx="251.5" cy="574.7" r="27.9"/>
		</g>
		<path class="st3" d="M101.4,196c142.5,0,284.8,0,427.2,0c2.5,0,3.9,1.4,6.4,1.4c26.8,3.9,47.1,31.8,41.9,58.6
			c-1.4,10.1-3.9,21.5-5,31.8c-5,27.9-8.9,56-14,83.9c-5,30.4-10.1,61.1-15.3,91.5c-3.9,22.9-20.4,40.7-43.2,44.6
			c-1.4,0-3.9,1.4-5,1.4c-39.3,0-80.1,0-119.4,0c-3.9,0-7.5-1.4-11.4-1.4c-45.7-7.5-81.4-47.1-83.9-94c0-14,1.4-26.8,6.4-40.7
			c2.5-7.5,2.5-14,2.5-21.5c-3.9-25.4-29.3-43.2-53.3-38.2c-19,3.9-36.8,10.1-56,15.3c-14,3.9-26.8,6.4-41.9,5
			c-38.2-3.9-71.1-30.4-80.1-68.6c-1.4-3.9-1.4-8.9-2.5-12.8c0-2.5,0-5,0-8.9v-1.4c2.5-21.5,17.8-39.3,39.3-44.6
			C95,197.1,97.5,197.1,101.4,196z M467.4,423.5L467.4,423.5c0-2.5,0-6.4,0-8.9c0-14,10.1-26.8,24.2-29.3c6.4-1.4,12.8,0,19-1.4
			c7.5,0,15.3-2.5,20.4-8.9c8.9-7.5,10.1-17.8,8.9-29.3c-1.4-14-11.4-25.4-25.4-26.8c-6.4-1.4-12.8,0-19,0
			c-15.3,0-27.9-11.4-29.3-26.8c-1.4-6.4,0-14,0-20.4c-1.4-12.8-6.4-21.5-17.8-26.8c-6.4-2.5-14-2.5-20.4-1.4
			c-15.3,1.4-27.9,12.8-29.3,27.9c0,6.4,0,12.8,0,17.8c0,14-10.1,26.8-25.4,29.3c-6.4,1.4-12.8,0-19,0c-8.9,0-16.5,3.9-22.9,11.4
			c-6.4,7.5-7.5,15.3-6.4,24.2c1.4,15.3,11.4,26.8,26.8,29.3c6.4,1.4,12.8,0,19,0c15.3,0,27.9,14,27.9,29.3c0,5,0,10.1,0,15.3
			c0,15.3,10.1,27.9,24.2,30.4c5,1.4,10.1,1.4,15.3,1.4c14,0,25.4-10.1,29.3-22.9C467.4,432.2,467.4,428.6,467.4,423.5z"/>
	</g>
</g>
</svg>
